<svg width="129" height="40" viewBox="0 0 129 40" fill="none" xmlns="http://www.w3.org/2000/svg">
<path d="M4 4H30.1818V4C30.1818 18.3068 18.5839 29.9048 4.27704 29.9048H4V4Z" fill="#BA4ABA" fill-opacity="0.7"/>
<path d="M6.90907 7.04761H33.0909V7.04761C33.0909 21.3544 21.4929 32.9524 7.18611 32.9524H6.90907V7.04761Z" fill="#BA4ABA" fill-opacity="0.5"/>
<path d="M9.81821 10.0952H36V10.0952C36 24.402 24.4021 36 10.0952 36H9.81821V10.0952Z" fill="#BA4ABA" fill-opacity="0.2"/>
<path d="M39.694 10.644H47.152C48.428 10.644 49.418 11.0033 50.122 11.722C50.8407 12.4407 51.2 13.394 51.2 14.582C51.2 15.1687 51.1193 15.6673 50.958 16.078C50.8113 16.4887 50.606 16.826 50.342 17.09C50.0927 17.354 49.792 17.552 49.44 17.684C49.1027 17.8013 48.736 17.8673 48.34 17.882V18.014C48.7067 18.014 49.088 18.08 49.484 18.212C49.8947 18.344 50.2687 18.5567 50.606 18.85C50.9433 19.1287 51.222 19.4953 51.442 19.95C51.6767 20.4047 51.794 20.962 51.794 21.622C51.794 22.2233 51.6913 22.7953 51.486 23.338C51.2953 23.866 51.024 24.328 50.672 24.724C50.32 25.12 49.902 25.4353 49.418 25.67C48.934 25.89 48.406 26 47.834 26H39.694V10.644ZM43.038 23.184H46.888C47.328 23.184 47.6727 23.0667 47.922 22.832C48.186 22.5827 48.318 22.238 48.318 21.798V21.05C48.318 20.61 48.186 20.2727 47.922 20.038C47.6727 19.7887 47.328 19.664 46.888 19.664H43.038V23.184ZM43.038 16.936H46.36C46.8 16.936 47.1447 16.8113 47.394 16.562C47.6433 16.3127 47.768 15.968 47.768 15.528V14.868C47.768 14.428 47.6433 14.0833 47.394 13.834C47.1447 13.5847 46.8 13.46 46.36 13.46H43.038V16.936ZM52.6518 26V14.45H55.9078V16.958H56.0178C56.0765 16.6353 56.1792 16.3273 56.3258 16.034C56.4725 15.726 56.6632 15.4547 56.8978 15.22C57.1472 14.9853 57.4405 14.802 57.7778 14.67C58.1152 14.5233 58.5112 14.45 58.9658 14.45H59.5378V17.486H58.7238C57.7705 17.486 57.0592 17.6107 56.5898 17.86C56.1352 18.1093 55.9078 18.5713 55.9078 19.246V26H52.6518ZM64.7169 26.264C63.8369 26.264 63.0523 26.1247 62.3629 25.846C61.6736 25.5527 61.0869 25.1493 60.6029 24.636C60.1336 24.108 59.7743 23.47 59.5249 22.722C59.2903 21.974 59.1729 21.138 59.1729 20.214C59.1729 19.3047 59.2903 18.4833 59.5249 17.75C59.7596 17.002 60.1043 16.364 60.5589 15.836C61.0283 15.308 61.6003 14.9047 62.2749 14.626C62.9496 14.3327 63.7196 14.186 64.5849 14.186C65.5383 14.186 66.3523 14.3473 67.0269 14.67C67.7163 14.9927 68.2736 15.4253 68.6989 15.968C69.1389 16.5107 69.4543 17.1413 69.6449 17.86C69.8503 18.564 69.9529 19.3047 69.9529 20.082V21.05H62.5389V21.226C62.5389 21.9887 62.7443 22.5973 63.1549 23.052C63.5656 23.492 64.2109 23.712 65.0909 23.712C65.7656 23.712 66.3156 23.58 66.7409 23.316C67.1663 23.0373 67.5623 22.7073 67.9289 22.326L69.5569 24.35C69.0436 24.9513 68.3689 25.4207 67.5329 25.758C66.7116 26.0953 65.7729 26.264 64.7169 26.264ZM64.6509 16.584C63.9909 16.584 63.4703 16.804 63.0889 17.244C62.7223 17.6693 62.5389 18.2413 62.5389 18.96V19.136H66.5869V18.938C66.5869 18.234 66.4256 17.6693 66.1029 17.244C65.7949 16.804 65.3109 16.584 64.6509 16.584ZM79.2485 26C78.6618 26 78.1705 25.8167 77.7745 25.45C77.3931 25.0833 77.1511 24.592 77.0485 23.976H76.9165C76.7405 24.724 76.3518 25.296 75.7505 25.692C75.1491 26.0733 74.4085 26.264 73.5285 26.264C72.3698 26.264 71.4825 25.956 70.8665 25.34C70.2505 24.724 69.9425 23.91 69.9425 22.898C69.9425 21.6807 70.3825 20.7787 71.2625 20.192C72.1571 19.5907 73.3671 19.29 74.8925 19.29H76.7185V18.564C76.7185 18.0067 76.5718 17.5667 76.2785 17.244C75.9851 16.9067 75.4938 16.738 74.8045 16.738C74.1591 16.738 73.6458 16.8773 73.2645 17.156C72.8831 17.4347 72.5678 17.75 72.3185 18.102L70.3825 16.386C70.8518 15.6967 71.4385 15.1613 72.1425 14.78C72.8611 14.384 73.8291 14.186 75.0465 14.186C76.6891 14.186 77.9211 14.5453 78.7425 15.264C79.5638 15.9827 79.9745 17.0313 79.9745 18.41V23.47H81.0525V26H79.2485ZM74.7385 23.998C75.2811 23.998 75.7431 23.8807 76.1245 23.646C76.5205 23.4113 76.7185 23.03 76.7185 22.502V21.138H75.1345C73.8585 21.138 73.2205 21.5707 73.2205 22.436V22.766C73.2205 23.1913 73.3525 23.5067 73.6165 23.712C73.8805 23.9027 74.2545 23.998 74.7385 23.998ZM81.6978 9.72H84.9538V19.334H85.0858L86.5158 17.2L88.8258 14.45H92.4338L88.5838 18.872L92.8738 26H89.0018L86.4058 21.116L84.9538 22.744V26H81.6978V9.72ZM96.9395 26.264C96.0889 26.264 95.3262 26.1247 94.6515 25.846C93.9915 25.5673 93.4269 25.164 92.9575 24.636C92.5029 24.108 92.1509 23.47 91.9015 22.722C91.6522 21.974 91.5275 21.138 91.5275 20.214C91.5275 19.29 91.6522 18.454 91.9015 17.706C92.1509 16.958 92.5029 16.3273 92.9575 15.814C93.4269 15.286 93.9915 14.8827 94.6515 14.604C95.3262 14.3253 96.0889 14.186 96.9395 14.186C97.7902 14.186 98.5455 14.3253 99.2055 14.604C99.8802 14.8827 100.445 15.286 100.9 15.814C101.369 16.3273 101.728 16.958 101.978 17.706C102.227 18.454 102.352 19.29 102.352 20.214C102.352 21.138 102.227 21.974 101.978 22.722C101.728 23.47 101.369 24.108 100.9 24.636C100.445 25.164 99.8802 25.5673 99.2055 25.846C98.5455 26.1247 97.7902 26.264 96.9395 26.264ZM96.9395 23.69C97.5849 23.69 98.0835 23.492 98.4355 23.096C98.7875 22.7 98.9635 22.1353 98.9635 21.402V19.048C98.9635 18.3147 98.7875 17.75 98.4355 17.354C98.0835 16.958 97.5849 16.76 96.9395 16.76C96.2942 16.76 95.7955 16.958 95.4435 17.354C95.0915 17.75 94.9155 18.3147 94.9155 19.048V21.402C94.9155 22.1353 95.0915 22.7 95.4435 23.096C95.7955 23.492 96.2942 23.69 96.9395 23.69ZM109.952 24.064H109.842C109.739 24.3573 109.6 24.636 109.424 24.9C109.262 25.164 109.05 25.3987 108.786 25.604C108.522 25.8093 108.206 25.9707 107.84 26.088C107.488 26.2053 107.077 26.264 106.608 26.264C105.42 26.264 104.518 25.8753 103.902 25.098C103.3 24.306 103 23.1767 103 21.71V14.45H106.256V21.424C106.256 22.128 106.38 22.6707 106.63 23.052C106.879 23.4333 107.304 23.624 107.906 23.624C108.155 23.624 108.404 23.5873 108.654 23.514C108.903 23.4407 109.123 23.338 109.314 23.206C109.504 23.0593 109.658 22.8833 109.776 22.678C109.893 22.4727 109.952 22.2307 109.952 21.952V14.45H113.208V26H109.952V24.064ZM118.745 26C117.616 26 116.758 25.714 116.171 25.142C115.599 24.57 115.313 23.734 115.313 22.634V16.98H113.685V14.45H114.499C114.939 14.45 115.24 14.3473 115.401 14.142C115.562 13.922 115.643 13.614 115.643 13.218V11.326H118.569V14.45H120.857V16.98H118.569V23.47H120.681V26H118.745Z" fill="#BA4ABA"/>
</svg>
